<mxfile host="app.diagrams.net" modified="2021-02-17T19:13:42.975Z" agent="5.0 (Macintosh)" etag="wjihepBWBJZrBjiQjrIk" version="14.4.0" type="github">
  <diagram id="C5RBs43oDa-KdzZeNtuy" name="MVP Flow chart">
    <mxGraphModel dx="2737" dy="1714" grid="1" gridSize="10" guides="1" tooltips="1" connect="1" arrows="1" fold="1" page="1" pageScale="1" pageWidth="827" pageHeight="1169" math="0" shadow="0">
      <root>
        <mxCell id="WIyWlLk6GJQsqaUBKTNV-0" />
        <mxCell id="WIyWlLk6GJQsqaUBKTNV-1" parent="WIyWlLk6GJQsqaUBKTNV-0" />
        <mxCell id="WIyWlLk6GJQsqaUBKTNV-2" value="" style="rounded=0;html=1;jettySize=auto;orthogonalLoop=1;fontSize=11;endArrow=block;endFill=0;endSize=8;strokeWidth=1;shadow=0;labelBackgroundColor=none;edgeStyle=orthogonalEdgeStyle;" parent="WIyWlLk6GJQsqaUBKTNV-1" source="WIyWlLk6GJQsqaUBKTNV-3" target="WIyWlLk6GJQsqaUBKTNV-6" edge="1">
          <mxGeometry relative="1" as="geometry" />
        </mxCell>
        <mxCell id="m7V7Sn8osEWsgWAGHdAP-11" value="" style="edgeStyle=orthogonalEdgeStyle;rounded=0;orthogonalLoop=1;jettySize=auto;html=1;" parent="WIyWlLk6GJQsqaUBKTNV-1" source="WIyWlLk6GJQsqaUBKTNV-3" target="m7V7Sn8osEWsgWAGHdAP-10" edge="1">
          <mxGeometry relative="1" as="geometry" />
        </mxCell>
        <mxCell id="WIyWlLk6GJQsqaUBKTNV-3" value="&lt;div&gt;root page(&#39; / &#39;)&lt;/div&gt;&lt;div&gt;Logo&lt;br&gt;&lt;/div&gt;Login &amp;amp; Sign Up(stretch)" style="rounded=1;whiteSpace=wrap;html=1;fontSize=12;glass=0;strokeWidth=1;shadow=0;fillColor=#fa6800;strokeColor=#C73500;fontColor=#ffffff;" parent="WIyWlLk6GJQsqaUBKTNV-1" vertex="1">
          <mxGeometry x="160" y="60" width="120" height="60" as="geometry" />
        </mxCell>
        <mxCell id="m7V7Sn8osEWsgWAGHdAP-5" value="" style="edgeStyle=orthogonalEdgeStyle;rounded=0;orthogonalLoop=1;jettySize=auto;html=1;" parent="WIyWlLk6GJQsqaUBKTNV-1" source="WIyWlLk6GJQsqaUBKTNV-6" target="m7V7Sn8osEWsgWAGHdAP-4" edge="1">
          <mxGeometry relative="1" as="geometry" />
        </mxCell>
        <mxCell id="WIyWlLk6GJQsqaUBKTNV-6" value="Sign Up" style="rhombus;whiteSpace=wrap;html=1;shadow=0;fontFamily=Helvetica;fontSize=12;align=center;strokeWidth=1;spacing=6;spacingTop=-4;" parent="WIyWlLk6GJQsqaUBKTNV-1" vertex="1">
          <mxGeometry x="170" y="170" width="100" height="80" as="geometry" />
        </mxCell>
        <mxCell id="m7V7Sn8osEWsgWAGHdAP-7" value="" style="edgeStyle=orthogonalEdgeStyle;rounded=0;orthogonalLoop=1;jettySize=auto;html=1;" parent="WIyWlLk6GJQsqaUBKTNV-1" source="m7V7Sn8osEWsgWAGHdAP-4" target="m7V7Sn8osEWsgWAGHdAP-6" edge="1">
          <mxGeometry relative="1" as="geometry" />
        </mxCell>
        <mxCell id="m7V7Sn8osEWsgWAGHdAP-21" value="" style="edgeStyle=orthogonalEdgeStyle;rounded=0;orthogonalLoop=1;jettySize=auto;html=1;" parent="WIyWlLk6GJQsqaUBKTNV-1" source="m7V7Sn8osEWsgWAGHdAP-4" target="m7V7Sn8osEWsgWAGHdAP-20" edge="1">
          <mxGeometry relative="1" as="geometry" />
        </mxCell>
        <mxCell id="m7V7Sn8osEWsgWAGHdAP-4" value="Create Parent Profile" style="whiteSpace=wrap;html=1;shadow=0;strokeWidth=1;spacing=6;spacingTop=-4;" parent="WIyWlLk6GJQsqaUBKTNV-1" vertex="1">
          <mxGeometry x="340" y="180" width="120" height="60" as="geometry" />
        </mxCell>
        <mxCell id="bpLDAsdAK411dj6YcbkQ-1" value="" style="edgeStyle=orthogonalEdgeStyle;rounded=0;orthogonalLoop=1;jettySize=auto;html=1;" parent="WIyWlLk6GJQsqaUBKTNV-1" source="m7V7Sn8osEWsgWAGHdAP-6" target="bpLDAsdAK411dj6YcbkQ-0" edge="1">
          <mxGeometry relative="1" as="geometry" />
        </mxCell>
        <mxCell id="m7V7Sn8osEWsgWAGHdAP-6" value="Parent Profile" style="whiteSpace=wrap;html=1;shadow=0;strokeWidth=1;spacing=6;spacingTop=-4;" parent="WIyWlLk6GJQsqaUBKTNV-1" vertex="1">
          <mxGeometry x="540" y="180" width="120" height="60" as="geometry" />
        </mxCell>
        <mxCell id="m7V7Sn8osEWsgWAGHdAP-13" value="" style="edgeStyle=orthogonalEdgeStyle;rounded=0;orthogonalLoop=1;jettySize=auto;html=1;" parent="WIyWlLk6GJQsqaUBKTNV-1" source="m7V7Sn8osEWsgWAGHdAP-10" target="m7V7Sn8osEWsgWAGHdAP-12" edge="1">
          <mxGeometry relative="1" as="geometry" />
        </mxCell>
        <mxCell id="m7V7Sn8osEWsgWAGHdAP-10" value="&lt;div&gt;&quot;/Netflix&quot;&lt;/div&gt;&lt;div&gt;Choose user&lt;br&gt;&lt;/div&gt;" style="shape=hexagon;perimeter=hexagonPerimeter2;whiteSpace=wrap;html=1;fixedSize=1;rounded=1;shadow=0;strokeWidth=1;glass=0;fillColor=#ffe6cc;strokeColor=#d79b00;" parent="WIyWlLk6GJQsqaUBKTNV-1" vertex="1">
          <mxGeometry x="-40" y="60" width="120" height="80" as="geometry" />
        </mxCell>
        <mxCell id="m7V7Sn8osEWsgWAGHdAP-15" value="" style="edgeStyle=orthogonalEdgeStyle;rounded=0;orthogonalLoop=1;jettySize=auto;html=1;" parent="WIyWlLk6GJQsqaUBKTNV-1" source="m7V7Sn8osEWsgWAGHdAP-12" edge="1">
          <mxGeometry relative="1" as="geometry">
            <mxPoint x="-490" y="220" as="targetPoint" />
          </mxGeometry>
        </mxCell>
        <mxCell id="kK63E5BtAxR1k83QR-6p-11" style="edgeStyle=orthogonalEdgeStyle;rounded=0;orthogonalLoop=1;jettySize=auto;html=1;entryX=0.5;entryY=0;entryDx=0;entryDy=0;" parent="WIyWlLk6GJQsqaUBKTNV-1" target="m7V7Sn8osEWsgWAGHdAP-6" edge="1">
          <mxGeometry relative="1" as="geometry">
            <mxPoint x="20" y="50" as="sourcePoint" />
            <Array as="points">
              <mxPoint x="20" y="40" />
              <mxPoint x="600" y="40" />
            </Array>
          </mxGeometry>
        </mxCell>
        <mxCell id="m7V7Sn8osEWsgWAGHdAP-12" value="&lt;div&gt;&quot;/message/children/:id&quot; &lt;br&gt;&lt;/div&gt;&lt;div&gt;Child Inbox&lt;/div&gt;&lt;div&gt;Can open messages&lt;/div&gt;&lt;div&gt;Progress Bar&lt;/div&gt;&lt;div&gt;Filter Messages&lt;/div&gt;&lt;div&gt;Delete messages&lt;/div&gt;&lt;div&gt;Profile: Avatar, Name, Age, Location,&lt;/div&gt;&lt;div&gt;Badges,&lt;/div&gt;&lt;div&gt;Stretch: When over over Child 2 name see their profile&lt;br&gt;&lt;/div&gt;&lt;div&gt;&lt;br&gt;&lt;/div&gt;" style="shape=hexagon;perimeter=hexagonPerimeter2;whiteSpace=wrap;html=1;fixedSize=1;rounded=1;shadow=0;strokeWidth=1;glass=0;fillColor=#ffe6cc;strokeColor=#d79b00;" parent="WIyWlLk6GJQsqaUBKTNV-1" vertex="1">
          <mxGeometry x="-370" y="-10" width="190" height="200" as="geometry" />
        </mxCell>
        <mxCell id="m7V7Sn8osEWsgWAGHdAP-19" value="" style="edgeStyle=orthogonalEdgeStyle;rounded=0;orthogonalLoop=1;jettySize=auto;html=1;" parent="WIyWlLk6GJQsqaUBKTNV-1" source="m7V7Sn8osEWsgWAGHdAP-14" edge="1">
          <mxGeometry relative="1" as="geometry">
            <mxPoint x="-180" y="380" as="targetPoint" />
          </mxGeometry>
        </mxCell>
        <mxCell id="m7V7Sn8osEWsgWAGHdAP-14" value="&lt;div&gt;(&#39;/Outbox&#39;)&lt;/div&gt;&lt;div&gt;(Create New Message)&lt;/div&gt;&lt;div&gt;Random Pen Pal Finder&lt;br&gt;&lt;/div&gt;" style="ellipse;shape=cloud;whiteSpace=wrap;html=1;rounded=1;shadow=0;strokeWidth=1;glass=0;fillColor=#ffe6cc;strokeColor=#d79b00;" parent="WIyWlLk6GJQsqaUBKTNV-1" vertex="1">
          <mxGeometry x="-600" y="210" width="220" height="120" as="geometry" />
        </mxCell>
        <mxCell id="m7V7Sn8osEWsgWAGHdAP-20" value="Create Child profile" style="ellipse;whiteSpace=wrap;html=1;shadow=0;strokeWidth=1;spacing=6;spacingTop=-4;" parent="WIyWlLk6GJQsqaUBKTNV-1" vertex="1">
          <mxGeometry x="480" y="340" width="120" height="80" as="geometry" />
        </mxCell>
        <mxCell id="bpLDAsdAK411dj6YcbkQ-0" value="Set parental Controls" style="whiteSpace=wrap;html=1;shadow=0;strokeWidth=1;spacing=6;spacingTop=-4;" parent="WIyWlLk6GJQsqaUBKTNV-1" vertex="1">
          <mxGeometry x="700" y="180" width="120" height="60" as="geometry" />
        </mxCell>
        <mxCell id="kK63E5BtAxR1k83QR-6p-0" value="Child?" style="text;html=1;strokeColor=none;fillColor=none;align=center;verticalAlign=middle;whiteSpace=wrap;rounded=0;" parent="WIyWlLk6GJQsqaUBKTNV-1" vertex="1">
          <mxGeometry x="-100" y="80" width="40" height="20" as="geometry" />
        </mxCell>
        <mxCell id="kK63E5BtAxR1k83QR-6p-9" value="Parent?" style="text;html=1;strokeColor=none;fillColor=none;align=center;verticalAlign=middle;whiteSpace=wrap;rounded=0;" parent="WIyWlLk6GJQsqaUBKTNV-1" vertex="1">
          <mxGeometry x="30" y="20" width="40" height="20" as="geometry" />
        </mxCell>
        <mxCell id="kK63E5BtAxR1k83QR-6p-15" value="Messages&lt;br&gt;/Alerts" style="shape=note;whiteSpace=wrap;html=1;backgroundOutline=1;darkOpacity=0.05;" parent="WIyWlLk6GJQsqaUBKTNV-1" vertex="1">
          <mxGeometry x="670" y="280" width="80" height="100" as="geometry" />
        </mxCell>
        <mxCell id="kK63E5BtAxR1k83QR-6p-17" value="" style="endArrow=classic;html=1;exitX=0.692;exitY=1.033;exitDx=0;exitDy=0;exitPerimeter=0;" parent="WIyWlLk6GJQsqaUBKTNV-1" source="m7V7Sn8osEWsgWAGHdAP-6" target="kK63E5BtAxR1k83QR-6p-15" edge="1">
          <mxGeometry width="50" height="50" relative="1" as="geometry">
            <mxPoint x="500" y="250" as="sourcePoint" />
            <mxPoint x="550" y="200" as="targetPoint" />
          </mxGeometry>
        </mxCell>
        <mxCell id="d32U4PatCqtajsgmt4SY-2" value="Text" style="text;html=1;strokeColor=none;fillColor=none;align=center;verticalAlign=middle;whiteSpace=wrap;rounded=0;" vertex="1" parent="WIyWlLk6GJQsqaUBKTNV-1">
          <mxGeometry x="220" y="250" width="40" height="20" as="geometry" />
        </mxCell>
        <mxCell id="d32U4PatCqtajsgmt4SY-3" value="Change the Link to name?" style="shape=callout;whiteSpace=wrap;html=1;perimeter=calloutPerimeter;fillColor=#e1d5e7;strokeColor=#9673a6;" vertex="1" parent="WIyWlLk6GJQsqaUBKTNV-1">
          <mxGeometry x="-270" y="-80" width="120" height="70" as="geometry" />
        </mxCell>
        <mxCell id="d32U4PatCqtajsgmt4SY-4" value="&lt;div&gt;When user hit submit button what happens next?&lt;/div&gt;&lt;div&gt;Pop up with: sent successfully&lt;/div&gt;&lt;div&gt;or&lt;/div&gt;&lt;div&gt;Redirect to outbox with updated sent messages logged (like tweeter?)&lt;br&gt;&lt;/div&gt;" style="shape=callout;whiteSpace=wrap;html=1;perimeter=calloutPerimeter;size=30;position=0.5;base=30;position2=0.94;fillColor=#e1d5e7;strokeColor=#9673a6;" vertex="1" parent="WIyWlLk6GJQsqaUBKTNV-1">
          <mxGeometry x="-890" y="80" width="360" height="160" as="geometry" />
        </mxCell>
        <mxCell id="d32U4PatCqtajsgmt4SY-6" value="Machine Learning (Francis) or some sort of spell check" style="shape=callout;whiteSpace=wrap;html=1;perimeter=calloutPerimeter;position2=0.5;base=70;size=40;position=0.58;direction=west;fillColor=#e1d5e7;strokeColor=#9673a6;" vertex="1" parent="WIyWlLk6GJQsqaUBKTNV-1">
          <mxGeometry x="-660" y="310" width="200" height="130" as="geometry" />
        </mxCell>
      </root>
    </mxGraphModel>
  </diagram>
</mxfile>
